<?xml version="1.0" encoding="utf-8"?><!-- Generator:  https://cnchub.ru/ --><svg version="1.2" class="svggear" xmlns="http://www.w3.org/2000/svg" xmlns:xlink="http://www.w3.org/1999/xlink" x="0px" y="0px" width="218px" height="218px" viewBox="-109 -109 218 218" overflow="scroll" xml:space="preserve"><path id="gearpoly2" data-id="2" class="gear" fill="#ddd" stroke="#444" stroke-width="1" stroke-miterlimit="10" d="M40.4166667,0 46.9917867,-0.0000833 47.0354918,-0.0015786 47.1188159,-0.0067715 47.2415473,-0.0179657 47.4033738,-0.0374549 47.6038835,-0.0675187 47.8425648,-0.1104188 48.1188076,-0.1683952 48.431904,-0.2436621 48.7810492,-0.3384045 49.1653428,-0.4547742 49.5837899,-0.5948863 50.0353027,-0.7608152 50.518702,-0.9545912 51.0327186,-1.1781971 51.5759956,-1.4335643 52.1470899,-1.72257 52.7444744,-2.0470329 53.3665401,-2.408711 54.0115988,-2.8092975 54.6778849,-3.2504182 55.3635582,-3.7336282 56.0667067,-4.2604092 56.7853491,-4.8321663 57.5174378,-5.4502256 57.8878672,-5.7770107 57.9808859,-5.8605819 58.0274541,-5.9026502 58.0332779,-5.9079221 58.0332699,-5.9090914 57.3452241,-10.6912606 57.344902,-10.6923847 57.3378283,-10.6958009 57.2812891,-10.7230345 57.1684831,-10.7769921 56.7209521,-10.9860912 55.8443157,-11.3726914 54.9936336,-11.7186583 54.1704965,-12.0258414 53.3764093,-12.2961474 52.6127888,-12.5315369 51.8809619,-12.7340207 51.1821644,-12.9056565 50.5175386,-13.0485448 49.8881328,-13.1648256 49.2948993,-13.2566748 48.7386933,-13.3262999 48.2202725,-13.3759367 47.7402953,-13.4078452 47.2993209,-13.424306 46.8978082,-13.427616 46.5361152,-13.4200849 46.2144994,-13.4040311 45.9331168,-13.3817778 45.6920225,-13.355649 45.4911703,-13.327966 45.3304133,-13.3010427 45.2095043,-13.2771826 45.128096,-13.2586742 45.0857421,-13.2477876 38.7772968,-11.3942176 35.0018601,-20.2083333 40.6960394,-23.4959654 40.7331415,-23.519113 40.8027058,-23.5652722 40.9033972,-23.6363324 41.0337985,-23.7341238 41.1924131,-23.8604147 41.3776671,-24.0169079 41.5879122,-24.2052383 41.8214282,-24.4269696 42.0764256,-24.6835915 42.3510487,-24.9765175 42.6433785,-25.3070816 42.9514357,-25.6765366 43.2731837,-26.0860512 43.6065322,-26.5367079 43.9493403,-27.029501 44.2994196,-27.5653343 44.6545382,-28.1450197 45.012424,-28.769275 45.3707679,-29.4387224 45.7272282,-30.1538872 46.0794337,-30.915196 46.4249877,-31.7229759 46.7614717,-32.5774533 47.0864495,-33.4787527 47.2438582,-33.9469716 47.2826292,-34.0658557 47.3019243,-34.1255721 47.3043319,-34.1330495 47.3037403,-34.1340582 44.3167905,-37.9315153 44.3159496,-37.9323278 44.3081155,-37.9317495 44.2455343,-37.9270648 44.1208626,-37.9173905 43.6287398,-37.8747101 42.6762503,-37.7711975 41.7665546,-37.6454726 40.9001055,-37.4999324 40.0772528,-37.3369806 39.2982432,-37.1590237 38.5632206,-36.9684664 37.8722263,-36.7677086 37.2251994,-36.5591406 36.6219776,-36.3451398 36.0622977,-36.1280667 35.5457966,-35.9102609 35.0720126,-35.6940372 34.6403859,-35.4816822 34.2502605,-35.2754505 33.9008853,-35.0775607 33.5914155,-34.8901921 33.320915,-34.7154811 33.0883572,-34.5555179 32.8926277,-34.4123426 32.7325261,-34.2879423 32.6067682,-34.1842475 32.5139879,-34.1031295 32.4527405,-34.0463967 32.4215042,-34.0157916 27.8850153,-29.2563303 20.2083333,-35.0018601 23.4958212,-40.6961227 23.5163788,-40.7347201 23.5535437,-40.8094773 23.6052149,-40.9213629 23.66925,-41.0712534 23.7434688,-41.2599318 23.8256569,-41.4880859 23.9135693,-41.7563074 24.0049345,-42.0650903 24.0974577,-42.4148301 24.1888254,-42.805823 24.2767083,-43.2382648 24.3587661,-43.7122508 24.4326508,-44.2277749 24.4960107,-44.7847293 24.5464947,-45.3829046 24.5817556,-46.0219896 24.5994547,-46.7015712 24.5972652,-47.421135 24.5728764,-48.1800654 24.5239977,-48.9776464 24.4483622,-49.8130619 24.3437308,-50.6853969 24.2078958,-51.593638 24.038685,-52.5366751 23.9408956,-53.0208689 23.9150302,-53.1432111 23.901882,-53.2045745 23.9002283,-53.2122539 23.8992117,-53.2128317 19.4137088,-55.0080511 19.4125742,-55.0083343 19.4060788,-55.0039164 19.3542243,-54.9685688 19.2510926,-54.8978547 18.846242,-54.6148311 18.0731181,-54.0489417 17.348161,-53.4852129 16.6705642,-52.9259468 16.0394287,-52.3734001 15.4537651,-51.8297801 14.9124955,-51.2972414 14.4144558,-50.7778828 13.9583981,-50.2737442 13.542993,-49.7868032 13.1668325,-49.3189724 12.8284325,-48.8720965 12.5262353,-48.4479493 12.2586131,-48.0482312 12.0238705,-47.6745665 11.8202475,-47.3285013 11.6459232,-47.0115004 11.4990183,-46.7249461 11.3775989,-46.4701349 11.2796799,-46.2482768 11.203228,-46.0604921 11.1461658,-45.9078109 11.1063747,-45.7911705 11.0816993,-45.7114147 11.0699504,-45.6692918 9.5209665,-39.279233 0,-40.4166667 -0.0000833,-46.9917867 -0.0015786,-47.0354918 -0.0067715,-47.1188159 -0.0179657,-47.2415473 -0.0374549,-47.4033738 -0.0675187,-47.6038835 -0.1104188,-47.8425648 -0.1683952,-48.1188076 -0.2436621,-48.431904 -0.3384045,-48.7810492 -0.4547742,-49.1653428 -0.5948863,-49.5837899 -0.7608152,-50.0353027 -0.9545912,-50.518702 -1.1781971,-51.0327186 -1.4335643,-51.5759956 -1.72257,-52.1470899 -2.0470329,-52.7444744 -2.408711,-53.3665401 -2.8092975,-54.0115988 -3.2504182,-54.6778849 -3.7336282,-55.3635582 -4.2604092,-56.0667067 -4.8321663,-56.7853491 -5.4502256,-57.5174378 -5.7770107,-57.8878672 -5.8605819,-57.9808859 -5.9026502,-58.0274541 -5.9079221,-58.0332779 -5.9090914,-58.0332699 -10.6912606,-57.3452241 -10.6923847,-57.344902 -10.6958009,-57.3378283 -10.7230345,-57.2812891 -10.7769921,-57.1684831 -10.9860912,-56.7209521 -11.3726914,-55.8443157 -11.7186583,-54.9936336 -12.0258414,-54.1704965 -12.2961474,-53.3764093 -12.5315369,-52.6127888 -12.7340207,-51.8809619 -12.9056565,-51.1821644 -13.0485448,-50.5175386 -13.1648256,-49.8881328 -13.2566748,-49.2948993 -13.3262999,-48.7386933 -13.3759367,-48.2202725 -13.4078452,-47.7402953 -13.424306,-47.2993209 -13.427616,-46.8978082 -13.4200849,-46.5361152 -13.4040311,-46.2144994 -13.3817778,-45.9331168 -13.355649,-45.6920225 -13.327966,-45.4911703 -13.3010427,-45.3304133 -13.2771826,-45.2095043 -13.2586742,-45.128096 -13.2477876,-45.0857421 -11.3942176,-38.7772968 -20.2083333,-35.0018601 -23.4959654,-40.6960394 -23.519113,-40.7331415 -23.5652722,-40.8027058 -23.6363324,-40.9033972 -23.7341238,-41.0337985 -23.8604147,-41.1924131 -24.0169079,-41.3776671 -24.2052383,-41.5879122 -24.4269696,-41.8214282 -24.6835915,-42.0764256 -24.9765175,-42.3510487 -25.3070816,-42.6433785 -25.6765366,-42.9514357 -26.0860512,-43.2731837 -26.5367079,-43.6065322 -27.029501,-43.9493403 -27.5653343,-44.2994196 -28.1450197,-44.6545382 -28.769275,-45.012424 -29.4387224,-45.3707679 -30.1538872,-45.7272282 -30.915196,-46.0794337 -31.7229759,-46.4249877 -32.5774533,-46.7614717 -33.4787527,-47.0864495 -33.9469716,-47.2438582 -34.0658557,-47.2826292 -34.1255721,-47.3019243 -34.1330495,-47.3043319 -34.1340582,-47.3037403 -37.9315153,-44.3167905 -37.9323278,-44.3159496 -37.9317495,-44.3081155 -37.9270648,-44.2455343 -37.9173905,-44.1208626 -37.8747101,-43.6287398 -37.7711975,-42.6762503 -37.6454726,-41.7665546 -37.4999324,-40.9001055 -37.3369806,-40.0772528 -37.1590237,-39.2982432 -36.9684664,-38.5632206 -36.7677086,-37.8722263 -36.5591406,-37.2251994 -36.3451398,-36.6219776 -36.1280667,-36.0622977 -35.9102609,-35.5457966 -35.6940372,-35.0720126 -35.4816822,-34.6403859 -35.2754505,-34.2502605 -35.0775607,-33.9008853 -34.8901921,-33.5914155 -34.7154811,-33.320915 -34.5555179,-33.0883572 -34.4123426,-32.8926277 -34.2879423,-32.7325261 -34.1842475,-32.6067682 -34.1031295,-32.5139879 -34.0463967,-32.4527405 -34.0157916,-32.4215042 -29.2563303,-27.8850153 -35.0018601,-20.2083333 -40.6961227,-23.4958212 -40.7347201,-23.5163788 -40.8094773,-23.5535437 -40.9213629,-23.6052149 -41.0712534,-23.66925 -41.2599318,-23.7434688 -41.4880859,-23.8256569 -41.7563074,-23.9135693 -42.0650903,-24.0049345 -42.4148301,-24.0974577 -42.805823,-24.1888254 -43.2382648,-24.2767083 -43.7122508,-24.3587661 -44.2277749,-24.4326508 -44.7847293,-24.4960107 -45.3829046,-24.5464947 -46.0219896,-24.5817556 -46.7015712,-24.5994547 -47.421135,-24.5972652 -48.1800654,-24.5728764 -48.9776464,-24.5239977 -49.8130619,-24.4483622 -50.6853969,-24.3437308 -51.593638,-24.2078958 -52.5366751,-24.038685 -53.0208689,-23.9408956 -53.1432111,-23.9150302 -53.2045745,-23.901882 -53.2122539,-23.9002283 -53.2128317,-23.8992117 -55.0080511,-19.4137088 -55.0083343,-19.4125742 -55.0039164,-19.4060788 -54.9685688,-19.3542243 -54.8978547,-19.2510926 -54.6148311,-18.846242 -54.0489417,-18.0731181 -53.4852129,-17.348161 -52.9259468,-16.6705642 -52.3734001,-16.0394287 -51.8297801,-15.4537651 -51.2972414,-14.9124955 -50.7778828,-14.4144558 -50.2737442,-13.9583981 -49.7868032,-13.542993 -49.3189724,-13.1668325 -48.8720965,-12.8284325 -48.4479493,-12.5262353 -48.0482312,-12.2586131 -47.6745665,-12.0238705 -47.3285013,-11.8202475 -47.0115004,-11.6459232 -46.7249461,-11.4990183 -46.4701349,-11.3775989 -46.2482768,-11.2796799 -46.0604921,-11.203228 -45.9078109,-11.1461658 -45.7911705,-11.1063747 -45.7114147,-11.0816993 -45.6692918,-11.0699504 -39.279233,-9.5209665 -40.4166667,0 -46.9917867,0.0000833 -47.0354918,0.0015786 -47.1188159,0.0067715 -47.2415473,0.0179657 -47.4033738,0.0374549 -47.6038835,0.0675187 -47.8425648,0.1104188 -48.1188076,0.1683952 -48.431904,0.2436621 -48.7810492,0.3384045 -49.1653428,0.4547742 -49.5837899,0.5948863 -50.0353027,0.7608152 -50.518702,0.9545912 -51.0327186,1.1781971 -51.5759956,1.4335643 -52.1470899,1.72257 -52.7444744,2.0470329 -53.3665401,2.408711 -54.0115988,2.8092975 -54.6778849,3.2504182 -55.3635582,3.7336282 -56.0667067,4.2604092 -56.7853491,4.8321663 -57.5174378,5.4502256 -57.8878672,5.7770107 -57.9808859,5.8605819 -58.0274541,5.9026502 -58.0332779,5.9079221 -58.0332699,5.9090914 -57.3452241,10.6912606 -57.344902,10.6923847 -57.3378283,10.6958009 -57.2812891,10.7230345 -57.1684831,10.7769921 -56.7209521,10.9860912 -55.8443157,11.3726914 -54.9936336,11.7186583 -54.1704965,12.0258414 -53.3764093,12.2961474 -52.6127888,12.5315369 -51.8809619,12.7340207 -51.1821644,12.9056565 -50.5175386,13.0485448 -49.8881328,13.1648256 -49.2948993,13.2566748 -48.7386933,13.3262999 -48.2202725,13.3759367 -47.7402953,13.4078452 -47.2993209,13.424306 -46.8978082,13.427616 -46.5361152,13.4200849 -46.2144994,13.4040311 -45.9331168,13.3817778 -45.6920225,13.355649 -45.4911703,13.327966 -45.3304133,13.3010427 -45.2095043,13.2771826 -45.128096,13.2586742 -45.0857421,13.2477876 -38.7772968,11.3942176 -35.0018601,20.2083333 -40.6960394,23.4959654 -40.7331415,23.519113 -40.8027058,23.5652722 -40.9033972,23.6363324 -41.0337985,23.7341238 -41.1924131,23.8604147 -41.3776671,24.0169079 -41.5879122,24.2052383 -41.8214282,24.4269696 -42.0764256,24.6835915 -42.3510487,24.9765175 -42.6433785,25.3070816 -42.9514357,25.6765366 -43.2731837,26.0860512 -43.6065322,26.5367079 -43.9493403,27.029501 -44.2994196,27.5653343 -44.6545382,28.1450197 -45.012424,28.769275 -45.3707679,29.4387224 -45.7272282,30.1538872 -46.0794337,30.915196 -46.4249877,31.7229759 -46.7614717,32.5774533 -47.0864495,33.4787527 -47.2438582,33.9469716 -47.2826292,34.0658557 -47.3019243,34.1255721 -47.3043319,34.1330495 -47.3037403,34.1340582 -44.3167905,37.9315153 -44.3159496,37.9323278 -44.3081155,37.9317495 -44.2455343,37.9270648 -44.1208626,37.9173905 -43.6287398,37.8747101 -42.6762503,37.7711975 -41.7665546,37.6454726 -40.9001055,37.4999324 -40.0772528,37.3369806 -39.2982432,37.1590237 -38.5632206,36.9684664 -37.8722263,36.7677086 -37.2251994,36.5591406 -36.6219776,36.3451398 -36.0622977,36.1280667 -35.5457966,35.9102609 -35.0720126,35.6940372 -34.6403859,35.4816822 -34.2502605,35.2754505 -33.9008853,35.0775607 -33.5914155,34.8901921 -33.320915,34.7154811 -33.0883572,34.5555179 -32.8926277,34.4123426 -32.7325261,34.2879423 -32.6067682,34.1842475 -32.5139879,34.1031295 -32.4527405,34.0463967 -32.4215042,34.0157916 -27.8850153,29.2563303 -20.2083333,35.0018601 -23.4958212,40.6961227 -23.5163788,40.7347201 -23.5535437,40.8094773 -23.6052149,40.9213629 -23.66925,41.0712534 -23.7434688,41.2599318 -23.8256569,41.4880859 -23.9135693,41.7563074 -24.0049345,42.0650903 -24.0974577,42.4148301 -24.1888254,42.805823 -24.2767083,43.2382648 -24.3587661,43.7122508 -24.4326508,44.2277749 -24.4960107,44.7847293 -24.5464947,45.3829046 -24.5817556,46.0219896 -24.5994547,46.7015712 -24.5972652,47.421135 -24.5728764,48.1800654 -24.5239977,48.9776464 -24.4483622,49.8130619 -24.3437308,50.6853969 -24.2078958,51.593638 -24.038685,52.5366751 -23.9408956,53.0208689 -23.9150302,53.1432111 -23.901882,53.2045745 -23.9002283,53.2122539 -23.8992117,53.2128317 -19.4137088,55.0080511 -19.4125742,55.0083343 -19.4060788,55.0039164 -19.3542243,54.9685688 -19.2510926,54.8978547 -18.846242,54.6148311 -18.0731181,54.0489417 -17.348161,53.4852129 -16.6705642,52.9259468 -16.0394287,52.3734001 -15.4537651,51.8297801 -14.9124955,51.2972414 -14.4144558,50.7778828 -13.9583981,50.2737442 -13.542993,49.7868032 -13.1668325,49.3189724 -12.8284325,48.8720965 -12.5262353,48.4479493 -12.2586131,48.0482312 -12.0238705,47.6745665 -11.8202475,47.3285013 -11.6459232,47.0115004 -11.4990183,46.7249461 -11.3775989,46.4701349 -11.2796799,46.2482768 -11.203228,46.0604921 -11.1461658,45.9078109 -11.1063747,45.7911705 -11.0816993,45.7114147 -11.0699504,45.6692918 -9.5209665,39.279233 0,40.4166667 0.0000833,46.9917867 0.0015786,47.0354918 0.0067715,47.1188159 0.0179657,47.2415473 0.0374549,47.4033738 0.0675187,47.6038835 0.1104188,47.8425648 0.1683952,48.1188076 0.2436621,48.431904 0.3384045,48.7810492 0.4547742,49.1653428 0.5948863,49.5837899 0.7608152,50.0353027 0.9545912,50.518702 1.1781971,51.0327186 1.4335643,51.5759956 1.72257,52.1470899 2.0470329,52.7444744 2.408711,53.3665401 2.8092975,54.0115988 3.2504182,54.6778849 3.7336282,55.3635582 4.2604092,56.0667067 4.8321663,56.7853491 5.4502256,57.5174378 5.7770107,57.8878672 5.8605819,57.9808859 5.9026502,58.0274541 5.9079221,58.0332779 5.9090914,58.0332699 10.6912606,57.3452241 10.6923847,57.344902 10.6958009,57.3378283 10.7230345,57.2812891 10.7769921,57.1684831 10.9860912,56.7209521 11.3726914,55.8443157 11.7186583,54.9936336 12.0258414,54.1704965 12.2961474,53.3764093 12.5315369,52.6127888 12.7340207,51.8809619 12.9056565,51.1821644 13.0485448,50.5175386 13.1648256,49.8881328 13.2566748,49.2948993 13.3262999,48.7386933 13.3759367,48.2202725 13.4078452,47.7402953 13.424306,47.2993209 13.427616,46.8978082 13.4200849,46.5361152 13.4040311,46.2144994 13.3817778,45.9331168 13.355649,45.6920225 13.327966,45.4911703 13.3010427,45.3304133 13.2771826,45.2095043 13.2586742,45.128096 13.2477876,45.0857421 11.3942176,38.7772968 20.2083333,35.0018601 23.4959654,40.6960394 23.519113,40.7331415 23.5652722,40.8027058 23.6363324,40.9033972 23.7341238,41.0337985 23.8604147,41.1924131 24.0169079,41.3776671 24.2052383,41.5879122 24.4269696,41.8214282 24.6835915,42.0764256 24.9765175,42.3510487 25.3070816,42.6433785 25.6765366,42.9514357 26.0860512,43.2731837 26.5367079,43.6065322 27.029501,43.9493403 27.5653343,44.2994196 28.1450197,44.6545382 28.769275,45.012424 29.4387224,45.3707679 30.1538872,45.7272282 30.915196,46.0794337 31.7229759,46.4249877 32.5774533,46.7614717 33.4787527,47.0864495 33.9469716,47.2438582 34.0658557,47.2826292 34.1255721,47.3019243 34.1330495,47.3043319 34.1340582,47.3037403 37.9315153,44.3167905 37.9323278,44.3159496 37.9317495,44.3081155 37.9270648,44.2455343 37.9173905,44.1208626 37.8747101,43.6287398 37.7711975,42.6762503 37.6454726,41.7665546 37.4999324,40.9001055 37.3369806,40.0772528 37.1590237,39.2982432 36.9684664,38.5632206 36.7677086,37.8722263 36.5591406,37.2251994 36.3451398,36.6219776 36.1280667,36.0622977 35.9102609,35.5457966 35.6940372,35.0720126 35.4816822,34.6403859 35.2754505,34.2502605 35.0775607,33.9008853 34.8901921,33.5914155 34.7154811,33.320915 34.5555179,33.0883572 34.4123426,32.8926277 34.2879423,32.7325261 34.1842475,32.6067682 34.1031295,32.5139879 34.0463967,32.4527405 34.0157916,32.4215042 29.2563303,27.8850153 35.0018601,20.2083333 40.6961227,23.4958212 40.7347201,23.5163788 40.8094773,23.5535437 40.9213629,23.6052149 41.0712534,23.66925 41.2599318,23.7434688 41.4880859,23.8256569 41.7563074,23.9135693 42.0650903,24.0049345 42.4148301,24.0974577 42.805823,24.1888254 43.2382648,24.2767083 43.7122508,24.3587661 44.2277749,24.4326508 44.7847293,24.4960107 45.3829046,24.5464947 46.0219896,24.5817556 46.7015712,24.5994547 47.421135,24.5972652 48.1800654,24.5728764 48.9776464,24.5239977 49.8130619,24.4483622 50.6853969,24.3437308 51.593638,24.2078958 52.5366751,24.038685 53.0208689,23.9408956 53.1432111,23.9150302 53.2045745,23.901882 53.2122539,23.9002283 53.2128317,23.8992117 55.0080511,19.4137088 55.0083343,19.4125742 55.0039164,19.4060788 54.9685688,19.3542243 54.8978547,19.2510926 54.6148311,18.846242 54.0489417,18.0731181 53.4852129,17.348161 52.9259468,16.6705642 52.3734001,16.0394287 51.8297801,15.4537651 51.2972414,14.9124955 50.7778828,14.4144558 50.2737442,13.9583981 49.7868032,13.542993 49.3189724,13.1668325 48.8720965,12.8284325 48.4479493,12.5262353 48.0482312,12.2586131 47.6745665,12.0238705 47.3285013,11.8202475 47.0115004,11.6459232 46.7249461,11.4990183 46.4701349,11.3775989 46.2482768,11.2796799 46.0604921,11.203228 45.9078109,11.1461658 45.7911705,11.1063747 45.7114147,11.0816993 45.6692918,11.0699504 39.279233,9.5209665 z"/><g class="guides"><polyline fill="none" stroke="#444" stroke-width="0.5" stroke-miterlimit="10" points="10,0 -10,0"/><polyline fill="none" stroke="#444" stroke-width="0.5" stroke-miterlimit="10" points="0,10 0,-10"/></g><circle fill="#c00" class="firstmarker" stroke="none" stroke-miterlimit="10" cx="49.4903813" cy="-7.1205449" r="3.2708333"/><g class="geartext"><g class="text"><polyline fill="none" stroke="#444" stroke-width="0.5" stroke-linecap="square" stroke-miterlimit="1"  points="-18.97 -24.26 -19.72 -23.65 -20.45 -23.03 -21.15 -22.38 -21.84 -21.71 "/><polyline fill="none" stroke="#444" stroke-width="0.5" stroke-linecap="square" stroke-miterlimit="1"  points="-19.17 -21.59 -21.72 -24.47 "/><polyline fill="none" stroke="#444" stroke-width="0.5" stroke-linecap="square" stroke-miterlimit="1"  points="-20.15 -25.78 -20.33 -24.39 -20.45 -23.03 -20.49 -21.68 -20.48 -20.35 "/><polyline fill="none" stroke="#444" stroke-width="0.5" stroke-linecap="square" stroke-miterlimit="1"  points="-17.78 -22.74 -19.1 -22.92 -20.45 -23.03 -21.82 -23.08 -23.21 -23.06 "/><polyline fill="none" stroke="#444" stroke-width="0.5" stroke-linecap="square" stroke-miterlimit="1"  points="-12.79 -24.8 -13.56 -24.39 -14.31 -23.96 -15.06 -23.5 -15.78 -23.02 -16.87 -24.6 -16.61 -25.93 -15.79 -26.43 -14.96 -26.92 -14.55 -28.22 -14.99 -29.08 -16.36 -29.44 -17.28 -28.91 -18.17 -28.36 -18.5 -26.98 "/><polyline fill="none" stroke="#444" stroke-width="0.5" stroke-linecap="square" stroke-miterlimit="1"  points="-4.44 -33.39 -3.68 -27.66 -4.78 -28.96 -5.96 -30.21 -7.23 -31.42 -8.57 -32.57 -7.1 -26.99 "/><polyline fill="none" stroke="#444" stroke-width="0.5" stroke-linecap="square" stroke-miterlimit="1"  points="1.75 -31.71 0.76 -31.75 -0.23 -31.76 -1.22 -31.73 -2.22 -31.68 "/><polyline fill="none" stroke="#444" stroke-width="0.5" stroke-linecap="square" stroke-miterlimit="1"  points="1.65 -29.79 0.71 -29.82 -0.22 -29.83 -1.15 -29.81 -2.08 -29.76 "/><polyline fill="none" stroke="#444" stroke-width="0.5" stroke-linecap="square" stroke-miterlimit="1"  points="3.84 -32.49 5 -33.31 4.14 -27.6 "/><polyline fill="none" stroke="#444" stroke-width="0.5" stroke-linecap="square" stroke-miterlimit="1"  points="5 -27.46 4.14 -27.6 3.28 -27.71 "/><polyline fill="none" stroke="#444" stroke-width="0.5" stroke-linecap="square" stroke-miterlimit="1"  points="10.03 -26.04 9.21 -26.34 8.38 -26.62 7.55 -26.87 6.71 -27.09 7.17 -28.96 8.33 -29.65 9.25 -29.37 10.17 -29.07 11.41 -29.63 11.76 -30.53 11.12 -31.79 10.12 -32.12 9.11 -32.42 7.86 -31.76 "/><polyline fill="none" stroke="#444" stroke-width="0.5" stroke-linecap="square" stroke-miterlimit="1"  points="17.04 -25.65 17.83 -25.1 18.61 -24.53 19.37 -23.94 20.73 -24.05 21.36 -24.78 21.18 -26.19 20.35 -26.83 19.51 -27.46 18.64 -28.05 15.44 -23.24 "/><polyline fill="none" stroke="#444" stroke-width="0.5" stroke-linecap="square" stroke-miterlimit="1"  points="19.51 -19.96 22.2 -22.71 "/><polyline fill="none" stroke="#444" stroke-width="0.5" stroke-linecap="square" stroke-miterlimit="1"  points="22.87 -23.4 23.54 -24.09 "/><polyline fill="none" stroke="#444" stroke-width="0.5" stroke-linecap="square" stroke-miterlimit="1"  points="23.67 -16.52 22.37 -16.68 22.59 -17.97 26.36 -20.96 "/><polyline fill="none" stroke="#444" stroke-width="0.5" stroke-linecap="square" stroke-miterlimit="1"  points="26.04 -18.18 25.46 -18.98 24.85 -19.77 24.22 -20.53 23.57 -21.28 "/><polyline fill="none" stroke="#444" stroke-width="0.5" stroke-linecap="square" stroke-miterlimit="1"  points="25.46 -11.43 25.09 -12.22 24.7 -12.99 24.28 -13.76 24.66 -15.01 26.3 -16.01 27.63 -15.66 28.1 -14.79 28.55 -13.9 28.97 -13 "/><polyline fill="none" stroke="#444" stroke-width="0.5" stroke-linecap="square" stroke-miterlimit="1"  points="27.93 -10.49 29.15 -9.92 30.37 -9.29 30.64 -8.34 29.95 -7.15 27.14 -6.48 "/><polyline fill="none" stroke="#444" stroke-width="0.5" stroke-linecap="square" stroke-miterlimit="1"  points="26.12 -9.81 31.53 -11.85 "/><polyline fill="none" stroke="#444" stroke-width="0.5" stroke-linecap="square" stroke-miterlimit="1"  points="27.9 -0.44 27.9 0.44 27.88 1.31 27.82 2.18 28.7 3.15 32.52 3.57 33.58 2.63 33.64 1.58 33.68 0.53 33.68 -0.53 "/><polyline fill="none" stroke="#444" stroke-width="0.5" stroke-linecap="square" stroke-miterlimit="1"  points="33.68 0.53 27.9 0.44 "/><polyline fill="none" stroke="#444" stroke-width="0.5" stroke-linecap="square" stroke-miterlimit="1"  points="30.37 9.29 30.64 8.34 30.89 7.37 31.1 6.41 31.29 5.43 "/><polyline fill="none" stroke="#444" stroke-width="0.5" stroke-linecap="square" stroke-miterlimit="1"  points="28.53 8.73 28.79 7.83 29.02 6.93 29.22 6.02 29.39 5.1 "/><polyline fill="none" stroke="#444" stroke-width="0.5" stroke-linecap="square" stroke-miterlimit="1"  points="30.63 11.51 31.14 12.82 25.8 10.63 "/><polyline fill="none" stroke="#444" stroke-width="0.5" stroke-linecap="square" stroke-miterlimit="1"  points="25.46 11.43 25.8 10.63 26.12 9.81 "/><polyline fill="none" stroke="#444" stroke-width="0.5" stroke-linecap="square" stroke-miterlimit="1"  points="24.69 18.41 24.1 19.17 23.49 19.91 22.86 20.64 22.89 22.01 23.59 22.67 25 22.57 25.69 21.78 26.36 20.96 27 20.13 22.37 16.68 "/><polyline fill="none" stroke="#444" stroke-width="0.5" stroke-linecap="square" stroke-miterlimit="1"  points="18.39 25.89 19.19 25.3 19.97 24.69 20.73 24.05 21.48 23.39 "/><polyline fill="none" stroke="#444" stroke-width="0.5" stroke-linecap="square" stroke-miterlimit="1"  points="17.28 24.32 18.03 23.77 18.76 23.19 19.48 22.6 20.17 21.98 "/><polyline fill="none" stroke="#444" stroke-width="0.5" stroke-linecap="square" stroke-miterlimit="1"  points="17.25 27.8 16.85 29.16 13.96 24.16 "/><polyline fill="none" stroke="#444" stroke-width="0.5" stroke-linecap="square" stroke-miterlimit="1"  points="13.2 24.59 13.96 24.16 14.71 23.72 "/><polyline fill="none" stroke="#444" stroke-width="0.5" stroke-linecap="square" stroke-miterlimit="1"  points="8.38 26.62 9.21 26.34 10.03 26.04 10.84 25.72 11.64 25.36 12.44 27.11 11.96 28.38 11.07 28.74 10.17 29.07 9.54 30.29 9.83 31.21 11.12 31.79 12.11 31.43 13.08 31.04 13.64 29.74 "/><polyline fill="none" stroke="#444" stroke-width="0.5" stroke-linecap="square" stroke-miterlimit="1"  points="2.66 30.68 1.7 30.75 0.74 30.78 -0.23 30.79 -1.22 31.73 -1.26 32.69 -0.25 33.68 0.81 33.67 1.86 33.63 2.91 33.55 2.41 27.8 "/><polyline fill="none" stroke="#444" stroke-width="0.5" stroke-linecap="square" stroke-miterlimit="1"  points="-2.82 27.76 -3.01 29.68 -4.19 31.48 -5.48 33.23 -6.15 31.16 -6.69 29.07 -6.26 27.2 "/><polyline fill="none" stroke="#444" stroke-width="0.5" stroke-linecap="square" stroke-miterlimit="1"  points="-3.01 29.68 -3.94 29.57 -4.86 29.43 -5.78 29.27 -6.69 29.07 "/><polyline fill="none" stroke="#444" stroke-width="0.5" stroke-linecap="square" stroke-miterlimit="1"  points="-12.76 29.08 -11.85 29.46 -10.92 29.82 -9.98 30.15 -9.04 30.44 "/><polyline fill="none" stroke="#444" stroke-width="0.5" stroke-linecap="square" stroke-miterlimit="1"  points="-11.99 27.32 -11.13 27.68 -10.26 28.01 -9.38 28.32 -8.49 28.6 "/><polyline fill="none" stroke="#444" stroke-width="0.5" stroke-linecap="square" stroke-miterlimit="1"  points="-15.78 23.02 -15.06 23.5 -14.31 23.96 -13.56 24.39 -12.79 24.8 -13.67 26.51 -14.96 26.92 -15.79 26.43 -16.61 25.93 -17.96 26.19 -18.5 26.98 -18.17 28.36 -17.28 28.91 -16.36 29.44 -14.99 29.08 "/><polyline fill="none" stroke="#444" stroke-width="0.5" stroke-linecap="square" stroke-miterlimit="1"  points="-19.83 20.98 -18.53 20.87 -17.87 21.44 -17.78 22.74 -20.15 25.78 -21.56 25.87 -22.36 25.19 -22.48 23.78 -19.83 20.98 "/></g></g><g class="guides gearguides" opacity="0.2"><circle class="pitch" fill="none" stroke="#f00" stroke-miterlimit="10" cx="0" cy="0" r="50"/><circle class="outer" fill="none" stroke="#ccc" stroke-miterlimit="10" stroke-dasharray="2,2" cx="0" cy="0" r="58.33"/><circle class="base" fill="none" stroke="#00f" stroke-miterlimit="10" stroke-dasharray="2,2" cx="0" cy="0" r="46.98"/></g></svg>